<svg xmlns="http://www.w3.org/2000/svg" version="1.1" xmlns:xlink="http://www.w3.org/1999/xlink" xmlns:svgjs="http://svgjs.dev/svgjs" viewBox="0 0 1422 800"><defs><linearGradient x1="50%" y1="0%" x2="50%" y2="100%" id="oooscillate-grad"><stop stop-color="#ea80e0" stop-opacity="1" offset="0%"></stop><stop stop-color="#f3b6ed" stop-opacity="1" offset="100%"></stop></linearGradient></defs><g stroke-width="1" stroke="url(#oooscillate-grad)" fill="none" stroke-linecap="round"><path d="M 0 360 Q 355.5 240 711 400 Q 1066.5 560 1422 360" opacity="0.94"></path><path d="M 0 342 Q 355.5 240 711 400 Q 1066.5 560 1422 342" opacity="0.08"></path><path d="M 0 324 Q 355.5 240 711 400 Q 1066.5 560 1422 324" opacity="0.67"></path><path d="M 0 306 Q 355.5 240 711 400 Q 1066.5 560 1422 306" opacity="0.84"></path><path d="M 0 288 Q 355.5 240 711 400 Q 1066.5 560 1422 288" opacity="0.92"></path><path d="M 0 270 Q 355.5 240 711 400 Q 1066.5 560 1422 270" opacity="0.11"></path><path d="M 0 252 Q 355.5 240 711 400 Q 1066.5 560 1422 252" opacity="0.51"></path><path d="M 0 234 Q 355.5 240 711 400 Q 1066.5 560 1422 234" opacity="0.95"></path><path d="M 0 216 Q 355.5 240 711 400 Q 1066.5 560 1422 216" opacity="0.20"></path><path d="M 0 198 Q 355.5 240 711 400 Q 1066.5 560 1422 198" opacity="0.13"></path><path d="M 0 180 Q 355.5 240 711 400 Q 1066.5 560 1422 180" opacity="0.28"></path><path d="M 0 162 Q 355.5 240 711 400 Q 1066.5 560 1422 162" opacity="0.88"></path><path d="M 0 144 Q 355.5 240 711 400 Q 1066.5 560 1422 144" opacity="0.60"></path><path d="M 0 126 Q 355.5 240 711 400 Q 1066.5 560 1422 126" opacity="0.32"></path><path d="M 0 108 Q 355.5 240 711 400 Q 1066.5 560 1422 108" opacity="0.95"></path><path d="M 0 90 Q 355.5 240 711 400 Q 1066.5 560 1422 90" opacity="0.18"></path><path d="M 0 72 Q 355.5 240 711 400 Q 1066.5 560 1422 72" opacity="0.65"></path><path d="M 0 54 Q 355.5 240 711 400 Q 1066.5 560 1422 54" opacity="0.28"></path><path d="M 0 36 Q 355.5 240 711 400 Q 1066.5 560 1422 36" opacity="0.49"></path></g></svg>